<mxfile host="app.diagrams.net" modified="2022-03-17T09:13:23.135Z" agent="5.0 (Macintosh; Intel Mac OS X 10_15_7) AppleWebKit/537.36 (KHTML, like Gecko) Chrome/99.0.4844.51 Safari/537.36" etag="NBLt3Jl_jMchstA38KKB" version="17.1.0" type="github" pages="2">
  <diagram id="kgpKYQtTHZ0yAKxKKP6v" name="Start Master">
    <mxGraphModel dx="1426" dy="712" grid="1" gridSize="10" guides="1" tooltips="1" connect="1" arrows="1" fold="1" page="1" pageScale="1" pageWidth="850" pageHeight="1100" math="0" shadow="0">
      <root>
        <mxCell id="0" />
        <mxCell id="1" parent="0" />
        <mxCell id="LGNnzQTe8pXJEuaVngby-1" value="&lt;font style=&quot;font-size: 24px&quot;&gt;&lt;b&gt;Start Master&lt;/b&gt;&lt;/font&gt;" style="whiteSpace=wrap;html=1;align=left;horizontal=1;verticalAlign=top;" parent="1" vertex="1">
          <mxGeometry x="65" y="70" width="1215" height="770" as="geometry" />
        </mxCell>
        <mxCell id="LGNnzQTe8pXJEuaVngby-2" value="main" style="shape=umlLifeline;perimeter=lifelinePerimeter;whiteSpace=wrap;html=1;container=1;collapsible=0;recursiveResize=0;outlineConnect=0;fontSize=16;fontStyle=1" parent="1" vertex="1">
          <mxGeometry x="100" y="140" width="100" height="680" as="geometry" />
        </mxCell>
        <mxCell id="LGNnzQTe8pXJEuaVngby-3" value="Flag" style="shape=umlLifeline;perimeter=lifelinePerimeter;whiteSpace=wrap;html=1;container=1;collapsible=0;recursiveResize=0;outlineConnect=0;fontSize=16;fontStyle=1" parent="1" vertex="1">
          <mxGeometry x="220" y="140" width="100" height="300" as="geometry" />
        </mxCell>
        <mxCell id="LGNnzQTe8pXJEuaVngby-4" value="MasterOptions" style="shape=umlLifeline;perimeter=lifelinePerimeter;whiteSpace=wrap;html=1;container=1;collapsible=0;recursiveResize=0;outlineConnect=0;fontSize=16;fontStyle=1" parent="1" vertex="1">
          <mxGeometry x="330" y="140" width="120" height="300" as="geometry" />
        </mxCell>
        <mxCell id="LGNnzQTe8pXJEuaVngby-5" value="Parse()" style="html=1;verticalAlign=bottom;endArrow=block;rounded=0;fontSize=16;fontStyle=1" parent="1" target="LGNnzQTe8pXJEuaVngby-3" edge="1">
          <mxGeometry relative="1" as="geometry">
            <mxPoint x="149.5" y="210" as="sourcePoint" />
            <mxPoint x="306" y="210" as="targetPoint" />
          </mxGeometry>
        </mxCell>
        <mxCell id="LGNnzQTe8pXJEuaVngby-6" value="" style="html=1;verticalAlign=bottom;endArrow=block;rounded=0;fontSize=16;fontStyle=1" parent="1" source="LGNnzQTe8pXJEuaVngby-3" target="LGNnzQTe8pXJEuaVngby-4" edge="1">
          <mxGeometry width="80" relative="1" as="geometry">
            <mxPoint x="310" y="240" as="sourcePoint" />
            <mxPoint x="390" y="240" as="targetPoint" />
            <Array as="points">
              <mxPoint x="390" y="230" />
            </Array>
          </mxGeometry>
        </mxCell>
        <mxCell id="LGNnzQTe8pXJEuaVngby-7" value="runMaster()" style="html=1;verticalAlign=bottom;endArrow=block;rounded=0;entryX=-0.022;entryY=0.005;entryDx=0;entryDy=0;entryPerimeter=0;fontSize=16;fontStyle=1" parent="1" target="HbZCNWBuGogwmI4jJk0Y-1" edge="1" source="LGNnzQTe8pXJEuaVngby-4">
          <mxGeometry width="80" relative="1" as="geometry">
            <mxPoint x="389.5" y="255" as="sourcePoint" />
            <mxPoint x="509.5" y="255" as="targetPoint" />
          </mxGeometry>
        </mxCell>
        <mxCell id="LGNnzQTe8pXJEuaVngby-8" value="cmdMaster" style="shape=umlLifeline;perimeter=lifelinePerimeter;whiteSpace=wrap;html=1;container=1;collapsible=0;recursiveResize=0;outlineConnect=0;fontSize=16;fontStyle=1" parent="1" vertex="1">
          <mxGeometry x="460" y="140" width="100" height="650" as="geometry" />
        </mxCell>
        <mxCell id="HbZCNWBuGogwmI4jJk0Y-1" value="" style="html=1;points=[];perimeter=orthogonalPerimeter;fontSize=16;fontStyle=1" parent="LGNnzQTe8pXJEuaVngby-8" vertex="1">
          <mxGeometry x="45" y="110" width="10" height="540" as="geometry" />
        </mxCell>
        <mxCell id="LGNnzQTe8pXJEuaVngby-10" value=":mux.Router" style="shape=umlLifeline;perimeter=lifelinePerimeter;whiteSpace=wrap;html=1;container=1;collapsible=0;recursiveResize=0;outlineConnect=0;fontSize=16;fontStyle=1" parent="1" vertex="1">
          <mxGeometry x="820" y="140" width="100" height="270" as="geometry" />
        </mxCell>
        <mxCell id="LGNnzQTe8pXJEuaVngby-11" value="" style="html=1;points=[];perimeter=orthogonalPerimeter;fontSize=16;fontStyle=1" parent="LGNnzQTe8pXJEuaVngby-10" vertex="1">
          <mxGeometry x="45" y="190" width="10" height="80" as="geometry" />
        </mxCell>
        <mxCell id="LGNnzQTe8pXJEuaVngby-12" value=":RaftServer" style="shape=umlLifeline;perimeter=lifelinePerimeter;whiteSpace=wrap;html=1;container=1;collapsible=0;recursiveResize=0;outlineConnect=0;fontSize=16;fontStyle=1" parent="1" vertex="1">
          <mxGeometry x="980" y="140" width="100" height="450" as="geometry" />
        </mxCell>
        <mxCell id="LGNnzQTe8pXJEuaVngby-13" value="" style="html=1;points=[];perimeter=orthogonalPerimeter;fontSize=16;fontStyle=1" parent="LGNnzQTe8pXJEuaVngby-12" vertex="1">
          <mxGeometry x="45" y="370" width="10" height="80" as="geometry" />
        </mxCell>
        <mxCell id="LGNnzQTe8pXJEuaVngby-14" value="NewRaftServer()" style="html=1;verticalAlign=bottom;endArrow=block;rounded=0;exitX=0.873;exitY=0.48;exitDx=0;exitDy=0;exitPerimeter=0;entryX=0.016;entryY=0.005;entryDx=0;entryDy=0;entryPerimeter=0;fontSize=16;fontStyle=1" parent="1" source="HbZCNWBuGogwmI4jJk0Y-1" target="LGNnzQTe8pXJEuaVngby-13" edge="1">
          <mxGeometry relative="1" as="geometry">
            <mxPoint x="530" y="510" as="sourcePoint" />
            <mxPoint x="1010" y="509" as="targetPoint" />
          </mxGeometry>
        </mxCell>
        <mxCell id="LGNnzQTe8pXJEuaVngby-15" value="return raftServer" style="html=1;verticalAlign=bottom;endArrow=open;dashed=1;endSize=8;exitX=0;exitY=0.95;rounded=0;entryX=1.102;entryY=0.623;entryDx=0;entryDy=0;entryPerimeter=0;fontSize=16;fontStyle=1" parent="1" source="LGNnzQTe8pXJEuaVngby-13" target="HbZCNWBuGogwmI4jJk0Y-1" edge="1">
          <mxGeometry relative="1" as="geometry">
            <mxPoint x="530" y="586" as="targetPoint" />
          </mxGeometry>
        </mxCell>
        <mxCell id="LGNnzQTe8pXJEuaVngby-16" value=":http.Server" style="shape=umlLifeline;perimeter=lifelinePerimeter;whiteSpace=wrap;html=1;container=1;collapsible=0;recursiveResize=0;outlineConnect=0;fontSize=16;fontStyle=1" parent="1" vertex="1">
          <mxGeometry x="1130" y="140" width="100" height="600" as="geometry" />
        </mxCell>
        <mxCell id="LGNnzQTe8pXJEuaVngby-17" value="" style="html=1;points=[];perimeter=orthogonalPerimeter;fontSize=16;fontStyle=1" parent="LGNnzQTe8pXJEuaVngby-16" vertex="1">
          <mxGeometry x="45" y="520" width="10" height="80" as="geometry" />
        </mxCell>
        <mxCell id="LGNnzQTe8pXJEuaVngby-18" value="Serve(r)" style="html=1;verticalAlign=bottom;endArrow=block;entryX=0;entryY=0;rounded=0;startArrow=none;exitX=1.044;exitY=0.759;exitDx=0;exitDy=0;exitPerimeter=0;fontSize=16;fontStyle=1" parent="1" source="HbZCNWBuGogwmI4jJk0Y-1" target="LGNnzQTe8pXJEuaVngby-17" edge="1">
          <mxGeometry relative="1" as="geometry">
            <mxPoint x="540" y="660" as="sourcePoint" />
          </mxGeometry>
        </mxCell>
        <mxCell id="LGNnzQTe8pXJEuaVngby-19" value="return httpS" style="html=1;verticalAlign=bottom;endArrow=open;dashed=1;endSize=8;exitX=0;exitY=0.95;rounded=0;entryX=0.93;entryY=0.899;entryDx=0;entryDy=0;entryPerimeter=0;fontSize=16;fontStyle=1" parent="1" source="LGNnzQTe8pXJEuaVngby-17" target="HbZCNWBuGogwmI4jJk0Y-1" edge="1">
          <mxGeometry relative="1" as="geometry">
            <mxPoint x="540" y="736" as="targetPoint" />
          </mxGeometry>
        </mxCell>
        <mxCell id="LGNnzQTe8pXJEuaVngby-20" value=":MasterServer" style="shape=umlLifeline;perimeter=lifelinePerimeter;whiteSpace=wrap;html=1;container=1;collapsible=0;recursiveResize=0;outlineConnect=0;fontSize=16;fontStyle=1" parent="1" vertex="1">
          <mxGeometry x="680" y="140" width="100" height="320" as="geometry" />
        </mxCell>
        <mxCell id="HbZCNWBuGogwmI4jJk0Y-2" value="" style="html=1;points=[];perimeter=orthogonalPerimeter;fontSize=16;fontStyle=1" parent="LGNnzQTe8pXJEuaVngby-20" vertex="1">
          <mxGeometry x="45" y="150" width="10" height="140" as="geometry" />
        </mxCell>
        <mxCell id="LGNnzQTe8pXJEuaVngby-21" value="HandleFunc()" style="html=1;verticalAlign=bottom;endArrow=block;entryX=0;entryY=0;rounded=0;exitX=0.93;exitY=0.276;exitDx=0;exitDy=0;exitPerimeter=0;fontSize=16;fontStyle=1" parent="1" source="HbZCNWBuGogwmI4jJk0Y-2" target="LGNnzQTe8pXJEuaVngby-11" edge="1">
          <mxGeometry relative="1" as="geometry">
            <mxPoint x="740" y="330" as="sourcePoint" />
          </mxGeometry>
        </mxCell>
        <mxCell id="LGNnzQTe8pXJEuaVngby-22" value="return r" style="html=1;verticalAlign=bottom;endArrow=open;dashed=1;endSize=8;exitX=0;exitY=0.95;rounded=0;entryX=0.987;entryY=0.827;entryDx=0;entryDy=0;entryPerimeter=0;fontSize=16;fontStyle=1" parent="1" source="LGNnzQTe8pXJEuaVngby-11" target="HbZCNWBuGogwmI4jJk0Y-2" edge="1">
          <mxGeometry relative="1" as="geometry">
            <mxPoint x="740" y="406" as="targetPoint" />
          </mxGeometry>
        </mxCell>
        <mxCell id="LGNnzQTe8pXJEuaVngby-23" value="return ms" style="html=1;verticalAlign=bottom;endArrow=open;dashed=1;endSize=8;rounded=0;exitX=-0.098;exitY=0.999;exitDx=0;exitDy=0;exitPerimeter=0;entryX=0.873;entryY=0.331;entryDx=0;entryDy=0;entryPerimeter=0;fontSize=16;fontStyle=1" parent="1" source="HbZCNWBuGogwmI4jJk0Y-2" target="HbZCNWBuGogwmI4jJk0Y-1" edge="1">
          <mxGeometry relative="1" as="geometry">
            <mxPoint x="710" y="430" as="sourcePoint" />
            <mxPoint x="520" y="430" as="targetPoint" />
          </mxGeometry>
        </mxCell>
        <mxCell id="LGNnzQTe8pXJEuaVngby-24" value="return" style="html=1;verticalAlign=bottom;endArrow=open;dashed=1;endSize=8;rounded=0;exitX=-0.156;exitY=0.981;exitDx=0;exitDy=0;exitPerimeter=0;fontSize=16;fontStyle=1" parent="1" source="HbZCNWBuGogwmI4jJk0Y-1" target="LGNnzQTe8pXJEuaVngby-2" edge="1">
          <mxGeometry relative="1" as="geometry">
            <mxPoint x="480" y="780" as="sourcePoint" />
            <mxPoint x="430" y="780" as="targetPoint" />
          </mxGeometry>
        </mxCell>
        <mxCell id="LGNnzQTe8pXJEuaVngby-9" value="NewMasterServer&lt;br&gt;(r, MasterOptions)" style="html=1;verticalAlign=bottom;endArrow=block;rounded=0;entryX=0.016;entryY=-0.001;entryDx=0;entryDy=0;entryPerimeter=0;exitX=1.044;exitY=0.073;exitDx=0;exitDy=0;exitPerimeter=0;fontSize=16;fontStyle=1" parent="1" source="HbZCNWBuGogwmI4jJk0Y-1" target="HbZCNWBuGogwmI4jJk0Y-2" edge="1">
          <mxGeometry width="80" relative="1" as="geometry">
            <mxPoint x="530" y="290" as="sourcePoint" />
            <mxPoint x="710" y="290" as="targetPoint" />
          </mxGeometry>
        </mxCell>
      </root>
    </mxGraphModel>
  </diagram>
  <diagram id="Mra0eF3ZUIyh96dURD1N" name="Start Volume">
    <mxGraphModel dx="2194" dy="1095" grid="1" gridSize="10" guides="1" tooltips="1" connect="1" arrows="1" fold="1" page="1" pageScale="1" pageWidth="827" pageHeight="1169" math="0" shadow="0">
      <root>
        <mxCell id="Mzlm5xJfWWdNN3N-lW8T-0" />
        <mxCell id="Mzlm5xJfWWdNN3N-lW8T-1" parent="Mzlm5xJfWWdNN3N-lW8T-0" />
        <mxCell id="sjqFP4tiXn401q0chpYy-0" value="&lt;font style=&quot;font-size: 24px&quot;&gt;Start Volume&lt;/font&gt;" style="whiteSpace=wrap;html=1;align=left;horizontal=1;verticalAlign=top;fontSize=16;fontStyle=1" parent="Mzlm5xJfWWdNN3N-lW8T-1" vertex="1">
          <mxGeometry x="70" y="69" width="1470" height="911" as="geometry" />
        </mxCell>
        <mxCell id="sjqFP4tiXn401q0chpYy-1" value="main" style="shape=umlLifeline;perimeter=lifelinePerimeter;whiteSpace=wrap;html=1;container=1;collapsible=0;recursiveResize=0;outlineConnect=0;fontSize=16;fontStyle=1" parent="Mzlm5xJfWWdNN3N-lW8T-1" vertex="1">
          <mxGeometry x="100" y="140" width="100" height="840" as="geometry" />
        </mxCell>
        <mxCell id="sjqFP4tiXn401q0chpYy-2" value="Flag" style="shape=umlLifeline;perimeter=lifelinePerimeter;whiteSpace=wrap;html=1;container=1;collapsible=0;recursiveResize=0;outlineConnect=0;fontSize=16;fontStyle=1" parent="Mzlm5xJfWWdNN3N-lW8T-1" vertex="1">
          <mxGeometry x="220" y="140" width="100" height="300" as="geometry" />
        </mxCell>
        <mxCell id="sjqFP4tiXn401q0chpYy-3" value="Volume&lt;br style=&quot;font-size: 16px;&quot;&gt;ServerOptions" style="shape=umlLifeline;perimeter=lifelinePerimeter;whiteSpace=wrap;html=1;container=1;collapsible=0;recursiveResize=0;outlineConnect=0;fontSize=16;fontStyle=1" parent="Mzlm5xJfWWdNN3N-lW8T-1" vertex="1">
          <mxGeometry x="330" y="140" width="120" height="300" as="geometry" />
        </mxCell>
        <mxCell id="sjqFP4tiXn401q0chpYy-4" value="Parse()" style="html=1;verticalAlign=bottom;endArrow=block;rounded=0;fontSize=16;fontStyle=1" parent="Mzlm5xJfWWdNN3N-lW8T-1" target="sjqFP4tiXn401q0chpYy-2" edge="1">
          <mxGeometry relative="1" as="geometry">
            <mxPoint x="149.5" y="210" as="sourcePoint" />
            <mxPoint x="306" y="210" as="targetPoint" />
          </mxGeometry>
        </mxCell>
        <mxCell id="sjqFP4tiXn401q0chpYy-5" value="" style="html=1;verticalAlign=bottom;endArrow=block;rounded=0;fontSize=16;fontStyle=1" parent="Mzlm5xJfWWdNN3N-lW8T-1" source="sjqFP4tiXn401q0chpYy-2" target="sjqFP4tiXn401q0chpYy-3" edge="1">
          <mxGeometry width="80" relative="1" as="geometry">
            <mxPoint x="310" y="240" as="sourcePoint" />
            <mxPoint x="390" y="240" as="targetPoint" />
            <Array as="points">
              <mxPoint x="390" y="230" />
            </Array>
          </mxGeometry>
        </mxCell>
        <mxCell id="sjqFP4tiXn401q0chpYy-6" value="runVolume()" style="html=1;verticalAlign=bottom;endArrow=block;rounded=0;entryX=-0.134;entryY=0.017;entryDx=0;entryDy=0;entryPerimeter=0;fontSize=16;fontStyle=1" parent="Mzlm5xJfWWdNN3N-lW8T-1" target="ym6G2y9NGFAl2pDBug24-0" edge="1">
          <mxGeometry width="80" relative="1" as="geometry">
            <mxPoint x="389.5" y="255" as="sourcePoint" />
            <mxPoint x="500" y="260" as="targetPoint" />
          </mxGeometry>
        </mxCell>
        <mxCell id="sjqFP4tiXn401q0chpYy-7" value="cmdVolume" style="shape=umlLifeline;perimeter=lifelinePerimeter;whiteSpace=wrap;html=1;container=1;collapsible=0;recursiveResize=0;outlineConnect=0;fontSize=16;fontStyle=1" parent="Mzlm5xJfWWdNN3N-lW8T-1" vertex="1">
          <mxGeometry x="460" y="140" width="100" height="840" as="geometry" />
        </mxCell>
        <mxCell id="sjqFP4tiXn401q0chpYy-8" value="NewVolumeServer()" style="html=1;verticalAlign=bottom;endArrow=block;rounded=0;entryX=-0.1;entryY=0.019;entryDx=0;entryDy=0;entryPerimeter=0;fontSize=16;fontStyle=1" parent="sjqFP4tiXn401q0chpYy-7" target="Dbe34lXSyrHhvyE4fIAp-5" edge="1">
          <mxGeometry width="80" relative="1" as="geometry">
            <mxPoint x="50" y="149.5" as="sourcePoint" />
            <mxPoint x="264" y="150" as="targetPoint" />
          </mxGeometry>
        </mxCell>
        <mxCell id="ym6G2y9NGFAl2pDBug24-0" value="" style="html=1;points=[];perimeter=orthogonalPerimeter;fontSize=16;fontStyle=1" parent="sjqFP4tiXn401q0chpYy-7" vertex="1">
          <mxGeometry x="45" y="100" width="10" height="730" as="geometry" />
        </mxCell>
        <mxCell id="sjqFP4tiXn401q0chpYy-9" value=":mux.Router" style="shape=umlLifeline;perimeter=lifelinePerimeter;whiteSpace=wrap;html=1;container=1;collapsible=0;recursiveResize=0;outlineConnect=0;fontSize=16;fontStyle=1" parent="Mzlm5xJfWWdNN3N-lW8T-1" vertex="1">
          <mxGeometry x="1241" y="140" width="100" height="640" as="geometry" />
        </mxCell>
        <mxCell id="sjqFP4tiXn401q0chpYy-10" value="" style="html=1;points=[];perimeter=orthogonalPerimeter;fontSize=16;fontStyle=1" parent="sjqFP4tiXn401q0chpYy-9" vertex="1">
          <mxGeometry x="45" y="540" width="10" height="80" as="geometry" />
        </mxCell>
        <mxCell id="sjqFP4tiXn401q0chpYy-15" value=":httpdown.&lt;br&gt;Server" style="shape=umlLifeline;perimeter=lifelinePerimeter;whiteSpace=wrap;html=1;container=1;collapsible=0;recursiveResize=0;outlineConnect=0;fontSize=16;fontStyle=1" parent="Mzlm5xJfWWdNN3N-lW8T-1" vertex="1">
          <mxGeometry x="1420" y="140" width="100" height="840" as="geometry" />
        </mxCell>
        <mxCell id="sjqFP4tiXn401q0chpYy-16" value="" style="html=1;points=[];perimeter=orthogonalPerimeter;fontSize=16;fontStyle=1" parent="sjqFP4tiXn401q0chpYy-15" vertex="1">
          <mxGeometry x="45.57" y="710.51" width="10" height="80" as="geometry" />
        </mxCell>
        <mxCell id="sjqFP4tiXn401q0chpYy-17" value="Serve(adminMux)" style="html=1;verticalAlign=bottom;endArrow=block;entryX=0;entryY=0;rounded=0;startArrow=none;exitX=0.943;exitY=0.741;exitDx=0;exitDy=0;exitPerimeter=0;fontSize=16;fontStyle=1" parent="Mzlm5xJfWWdNN3N-lW8T-1" target="sjqFP4tiXn401q0chpYy-16" edge="1">
          <mxGeometry relative="1" as="geometry">
            <mxPoint x="515.0000000000003" y="849.9999999999998" as="sourcePoint" />
          </mxGeometry>
        </mxCell>
        <mxCell id="sjqFP4tiXn401q0chpYy-18" value="return clusterHttpServer" style="html=1;verticalAlign=bottom;endArrow=open;dashed=1;endSize=8;exitX=0;exitY=0.95;rounded=0;entryX=1.004;entryY=0.826;entryDx=0;entryDy=0;entryPerimeter=0;fontSize=16;fontStyle=1" parent="Mzlm5xJfWWdNN3N-lW8T-1" source="sjqFP4tiXn401q0chpYy-16" edge="1">
          <mxGeometry x="-0.0478" y="-6" relative="1" as="geometry">
            <mxPoint x="515.6100000000005" y="925.6499999999999" as="targetPoint" />
            <mxPoint as="offset" />
          </mxGeometry>
        </mxCell>
        <mxCell id="sjqFP4tiXn401q0chpYy-19" value=":VolumeServer" style="shape=umlLifeline;perimeter=lifelinePerimeter;whiteSpace=wrap;html=1;container=1;collapsible=0;recursiveResize=0;outlineConnect=0;fontSize=16;fontStyle=1" parent="Mzlm5xJfWWdNN3N-lW8T-1" vertex="1">
          <mxGeometry x="640" y="140" width="140" height="840" as="geometry" />
        </mxCell>
        <mxCell id="Dbe34lXSyrHhvyE4fIAp-5" value="" style="html=1;points=[];perimeter=orthogonalPerimeter;fontSize=16;fontStyle=1" parent="sjqFP4tiXn401q0chpYy-19" vertex="1">
          <mxGeometry x="65" y="140" width="10" height="540" as="geometry" />
        </mxCell>
        <mxCell id="sjqFP4tiXn401q0chpYy-20" value="HandleFunc()" style="html=1;verticalAlign=bottom;endArrow=block;entryX=0;entryY=0;rounded=0;exitX=0.941;exitY=0.74;exitDx=0;exitDy=0;exitPerimeter=0;fontSize=16;fontStyle=1" parent="Mzlm5xJfWWdNN3N-lW8T-1" source="Dbe34lXSyrHhvyE4fIAp-5" target="sjqFP4tiXn401q0chpYy-10" edge="1">
          <mxGeometry relative="1" as="geometry">
            <mxPoint x="739.9973684210524" y="680" as="sourcePoint" />
          </mxGeometry>
        </mxCell>
        <mxCell id="sjqFP4tiXn401q0chpYy-21" value="return adminMux&amp;amp;publicMux" style="html=1;verticalAlign=bottom;endArrow=open;dashed=1;endSize=8;exitX=0;exitY=0.95;rounded=0;entryX=1.007;entryY=0.882;entryDx=0;entryDy=0;entryPerimeter=0;fontSize=16;fontStyle=1" parent="Mzlm5xJfWWdNN3N-lW8T-1" source="sjqFP4tiXn401q0chpYy-10" target="Dbe34lXSyrHhvyE4fIAp-5" edge="1">
          <mxGeometry relative="1" as="geometry">
            <mxPoint x="739.9973684210524" y="756" as="targetPoint" />
          </mxGeometry>
        </mxCell>
        <mxCell id="sjqFP4tiXn401q0chpYy-22" value="return volumeServer" style="html=1;verticalAlign=bottom;endArrow=open;dashed=1;endSize=8;rounded=0;exitX=-0.124;exitY=0.969;exitDx=0;exitDy=0;exitPerimeter=0;fontSize=16;fontStyle=1" parent="Mzlm5xJfWWdNN3N-lW8T-1" source="Dbe34lXSyrHhvyE4fIAp-5" target="ym6G2y9NGFAl2pDBug24-0" edge="1">
          <mxGeometry relative="1" as="geometry">
            <mxPoint x="730" y="430" as="sourcePoint" />
            <mxPoint x="540" y="800" as="targetPoint" />
            <Array as="points">
              <mxPoint x="650" y="803" />
            </Array>
          </mxGeometry>
        </mxCell>
        <mxCell id="sjqFP4tiXn401q0chpYy-23" value="return" style="html=1;verticalAlign=bottom;endArrow=open;dashed=1;endSize=8;rounded=0;exitX=-0.198;exitY=0.978;exitDx=0;exitDy=0;exitPerimeter=0;fontSize=16;fontStyle=1" parent="Mzlm5xJfWWdNN3N-lW8T-1" source="ym6G2y9NGFAl2pDBug24-0" target="sjqFP4tiXn401q0chpYy-1" edge="1">
          <mxGeometry relative="1" as="geometry">
            <mxPoint x="470" y="1110" as="sourcePoint" />
            <mxPoint x="430" y="780" as="targetPoint" />
            <Array as="points">
              <mxPoint x="350" y="954" />
            </Array>
          </mxGeometry>
        </mxCell>
        <mxCell id="vGNdf2LSF6fXWQOkZbyO-0" value=":Store" style="shape=umlLifeline;perimeter=lifelinePerimeter;whiteSpace=wrap;html=1;container=1;collapsible=0;recursiveResize=0;outlineConnect=0;fontSize=16;fontStyle=1" parent="Mzlm5xJfWWdNN3N-lW8T-1" vertex="1">
          <mxGeometry x="827" y="140" width="100" height="480" as="geometry" />
        </mxCell>
        <mxCell id="Dbe34lXSyrHhvyE4fIAp-0" value="" style="html=1;points=[];perimeter=orthogonalPerimeter;fontSize=16;fontStyle=1" parent="vGNdf2LSF6fXWQOkZbyO-0" vertex="1">
          <mxGeometry x="45" y="175" width="10" height="305" as="geometry" />
        </mxCell>
        <mxCell id="Dbe34lXSyrHhvyE4fIAp-1" value="" style="html=1;points=[];perimeter=orthogonalPerimeter;fontSize=16;fontStyle=1" parent="vGNdf2LSF6fXWQOkZbyO-0" vertex="1">
          <mxGeometry x="55" y="390" width="10" height="40" as="geometry" />
        </mxCell>
        <mxCell id="Dbe34lXSyrHhvyE4fIAp-2" value="make(chan) &lt;br style=&quot;font-size: 16px&quot;&gt;//for new&amp;amp;delete&lt;br&gt;&amp;nbsp;volume" style="edgeStyle=orthogonalEdgeStyle;html=1;align=left;spacingLeft=2;endArrow=block;rounded=0;entryX=1;entryY=0;exitX=1.038;exitY=0.637;exitDx=0;exitDy=0;exitPerimeter=0;fontSize=16;fontStyle=1" parent="vGNdf2LSF6fXWQOkZbyO-0" source="Dbe34lXSyrHhvyE4fIAp-0" target="Dbe34lXSyrHhvyE4fIAp-1" edge="1">
          <mxGeometry relative="1" as="geometry">
            <mxPoint x="60" y="370" as="sourcePoint" />
            <Array as="points">
              <mxPoint x="90" y="369" />
              <mxPoint x="90" y="390" />
            </Array>
          </mxGeometry>
        </mxCell>
        <mxCell id="vGNdf2LSF6fXWQOkZbyO-1" value="NewStore()" style="html=1;verticalAlign=bottom;endArrow=block;rounded=0;entryX=0.063;entryY=0.016;entryDx=0;entryDy=0;entryPerimeter=0;fontSize=16;fontStyle=1" parent="Mzlm5xJfWWdNN3N-lW8T-1" target="Dbe34lXSyrHhvyE4fIAp-0" edge="1" source="sjqFP4tiXn401q0chpYy-19">
          <mxGeometry width="80" relative="1" as="geometry">
            <mxPoint x="734.9999999999995" y="319.3299999999999" as="sourcePoint" />
            <mxPoint x="870" y="320" as="targetPoint" />
          </mxGeometry>
        </mxCell>
        <mxCell id="vGNdf2LSF6fXWQOkZbyO-2" value=":DiskLocation" style="shape=umlLifeline;perimeter=lifelinePerimeter;whiteSpace=wrap;html=1;container=1;collapsible=0;recursiveResize=0;outlineConnect=0;fontSize=16;fontStyle=1" parent="Mzlm5xJfWWdNN3N-lW8T-1" vertex="1">
          <mxGeometry x="1030" y="140" width="120" height="430" as="geometry" />
        </mxCell>
        <mxCell id="oYjZRE95RsBf2y3OqhEJ-0" value="" style="html=1;points=[];perimeter=orthogonalPerimeter;fontSize=16;fontStyle=1" parent="vGNdf2LSF6fXWQOkZbyO-2" vertex="1">
          <mxGeometry x="60" y="210" width="10" height="130" as="geometry" />
        </mxCell>
        <mxCell id="vGNdf2LSF6fXWQOkZbyO-5" value="" style="html=1;points=[];perimeter=orthogonalPerimeter;fontSize=16;fontStyle=1" parent="vGNdf2LSF6fXWQOkZbyO-2" vertex="1">
          <mxGeometry x="70" y="265" width="10" height="40" as="geometry" />
        </mxCell>
        <mxCell id="vGNdf2LSF6fXWQOkZbyO-6" value="loadExistingVolumes()" style="edgeStyle=orthogonalEdgeStyle;html=1;align=left;spacingLeft=2;endArrow=block;rounded=0;entryX=1;entryY=0;startArrow=none;exitX=0.943;exitY=0.267;exitDx=0;exitDy=0;exitPerimeter=0;fontSize=16;fontStyle=1" parent="vGNdf2LSF6fXWQOkZbyO-2" source="oYjZRE95RsBf2y3OqhEJ-0" target="vGNdf2LSF6fXWQOkZbyO-5" edge="1">
          <mxGeometry relative="1" as="geometry">
            <mxPoint x="80" y="245" as="sourcePoint" />
            <Array as="points">
              <mxPoint x="110" y="245" />
              <mxPoint x="110" y="265" />
            </Array>
          </mxGeometry>
        </mxCell>
        <mxCell id="vGNdf2LSF6fXWQOkZbyO-3" value="NewDiskLocation()" style="html=1;verticalAlign=bottom;endArrow=block;rounded=0;entryX=0.048;entryY=0.028;entryDx=0;entryDy=0;entryPerimeter=0;exitX=0.941;exitY=0.132;exitDx=0;exitDy=0;exitPerimeter=0;fontSize=16;fontStyle=1" parent="Mzlm5xJfWWdNN3N-lW8T-1" source="Dbe34lXSyrHhvyE4fIAp-0" target="oYjZRE95RsBf2y3OqhEJ-0" edge="1">
          <mxGeometry width="80" relative="1" as="geometry">
            <mxPoint x="910" y="350" as="sourcePoint" />
            <mxPoint x="1000" y="350" as="targetPoint" />
          </mxGeometry>
        </mxCell>
        <mxCell id="vGNdf2LSF6fXWQOkZbyO-4" value="return location" style="html=1;verticalAlign=bottom;endArrow=open;dashed=1;endSize=8;rounded=0;exitX=-0.005;exitY=0.923;exitDx=0;exitDy=0;exitPerimeter=0;entryX=1.087;entryY=0.509;entryDx=0;entryDy=0;entryPerimeter=0;fontSize=16;fontStyle=1" parent="Mzlm5xJfWWdNN3N-lW8T-1" source="oYjZRE95RsBf2y3OqhEJ-0" target="Dbe34lXSyrHhvyE4fIAp-0" edge="1">
          <mxGeometry relative="1" as="geometry">
            <mxPoint x="1020" y="470" as="sourcePoint" />
            <mxPoint x="900" y="470" as="targetPoint" />
            <Array as="points">
              <mxPoint x="970" y="470" />
            </Array>
          </mxGeometry>
        </mxCell>
        <mxCell id="Dbe34lXSyrHhvyE4fIAp-3" value="return vs.store" style="html=1;verticalAlign=bottom;endArrow=open;dashed=1;endSize=8;rounded=0;exitX=0.014;exitY=0.968;exitDx=0;exitDy=0;exitPerimeter=0;entryX=1.007;entryY=0.614;entryDx=0;entryDy=0;entryPerimeter=0;fontSize=16;fontStyle=1" parent="Mzlm5xJfWWdNN3N-lW8T-1" source="Dbe34lXSyrHhvyE4fIAp-0" target="Dbe34lXSyrHhvyE4fIAp-5" edge="1">
          <mxGeometry relative="1" as="geometry">
            <mxPoint x="870" y="610" as="sourcePoint" />
            <mxPoint x="760" y="610" as="targetPoint" />
          </mxGeometry>
        </mxCell>
      </root>
    </mxGraphModel>
  </diagram>
</mxfile>
